<svg width="200" height="200" viewBox="0 0 200 200" fill="none" xmlns="http://www.w3.org/2000/svg">
  <title>TypeScript generator's logo</title>
  <rect width="200" height="200" fill="#007ACD"/>
  <path d="M90.043 132.34H74.6797V174H62.3398V132.34H47.2578V122.812H90.043V132.34ZM121.121 160.395C121.121 158.59 120.477 157.184 119.188 156.176C117.922 155.168 115.684 154.125 112.473 153.047C109.262 151.969 106.637 150.926 104.598 149.918C97.9648 146.66 94.6484 142.184 94.6484 136.488C94.6484 133.652 95.4688 131.156 97.1094 129C98.7734 126.82 101.117 125.133 104.141 123.938C107.164 122.719 110.562 122.109 114.336 122.109C118.016 122.109 121.309 122.766 124.215 124.078C127.145 125.391 129.418 127.266 131.035 129.703C132.652 132.117 133.461 134.883 133.461 138H121.156C121.156 135.914 120.512 134.297 119.223 133.148C117.957 132 116.234 131.426 114.055 131.426C111.852 131.426 110.105 131.918 108.816 132.902C107.551 133.863 106.918 135.094 106.918 136.594C106.918 137.906 107.621 139.102 109.027 140.18C110.434 141.234 112.906 142.336 116.445 143.484C119.984 144.609 122.891 145.828 125.164 147.141C130.695 150.328 133.461 154.723 133.461 160.324C133.461 164.801 131.773 168.316 128.398 170.871C125.023 173.426 120.395 174.703 114.512 174.703C110.363 174.703 106.602 173.965 103.227 172.488C99.875 170.988 97.3438 168.949 95.6328 166.371C93.9453 163.77 93.1016 160.781 93.1016 157.406H105.477C105.477 160.148 106.18 162.176 107.586 163.488C109.016 164.777 111.324 165.422 114.512 165.422C116.551 165.422 118.156 164.988 119.328 164.121C120.523 163.23 121.121 161.988 121.121 160.395ZM181.695 167.672C179.797 169.781 177.02 171.48 173.363 172.77C169.707 174.059 165.699 174.703 161.34 174.703C154.637 174.703 149.281 172.652 145.273 168.551C141.266 164.449 139.121 158.742 138.84 151.43L138.805 147C138.805 141.961 139.695 137.566 141.477 133.816C143.258 130.043 145.801 127.148 149.105 125.133C152.434 123.094 156.277 122.074 160.637 122.074C167.012 122.074 171.957 123.539 175.473 126.469C179.012 129.375 181.074 133.723 181.66 139.512H169.777C169.355 136.652 168.441 134.613 167.035 133.395C165.629 132.176 163.637 131.566 161.059 131.566C157.965 131.566 155.574 132.879 153.887 135.504C152.199 138.129 151.344 141.879 151.32 146.754V149.848C151.32 154.957 152.188 158.801 153.922 161.379C155.68 163.934 158.434 165.211 162.184 165.211C165.395 165.211 167.785 164.496 169.355 163.066V155.121H160.777V146.648H181.695V167.672Z" fill="white"/>
</svg>
